<?xml version="1.0" encoding="UTF-8" standalone="no"?>
<!-- Svg Vector Icons : http://www.onlinewebfonts.com/icon -->

<svg
   xmlns:dc="http://purl.org/dc/elements/1.1/"
   xmlns:cc="http://creativecommons.org/ns#"
   xmlns:rdf="http://www.w3.org/1999/02/22-rdf-syntax-ns#"
   xmlns:svg="http://www.w3.org/2000/svg"
   xmlns="http://www.w3.org/2000/svg"
   xmlns:sodipodi="http://sodipodi.sourceforge.net/DTD/sodipodi-0.dtd"
   xmlns:inkscape="http://www.inkscape.org/namespaces/inkscape"
   version="1.1"
   x="0px"
   y="0px"
   viewBox="0 0 1000 1000"
   enable-background="new 0 0 1000 1000"
   xml:space="preserve"
   id="svg67"
   sodipodi:docname="calendar.svg"
   inkscape:version="0.92.5 (2060ec1f9f, 2020-04-08)"><defs
   id="defs71" /><sodipodi:namedview
   pagecolor="#ffffff"
   bordercolor="#666666"
   borderopacity="1"
   objecttolerance="10"
   gridtolerance="10"
   guidetolerance="10"
   inkscape:pageopacity="0"
   inkscape:pageshadow="2"
   inkscape:window-width="1458"
   inkscape:window-height="989"
   id="namedview69"
   showgrid="false"
   inkscape:zoom="0.62768974"
   inkscape:cx="397.2048"
   inkscape:cy="500"
   inkscape:window-x="328"
   inkscape:window-y="24"
   inkscape:window-maximized="0"
   inkscape:current-layer="svg67" />
<metadata
   id="metadata2"> Svg Vector Icons : http://www.onlinewebfonts.com/icon <rdf:RDF><cc:Work
     rdf:about=""><dc:format>image/svg+xml</dc:format><dc:type
       rdf:resource="http://purl.org/dc/dcmitype/StillImage" /><dc:title /></cc:Work></rdf:RDF></metadata>
<path
   d="m 249.5,243.1 h 14 c 21.3,0 38.6,-17.3 38.6,-38.6 V 98 58.2 c 0,-21.3 -17.3,-38.6 -38.6,-38.6 h -14 c -21.3,0 -38.6,17.3 -38.6,38.6 V 98 204.5 c 0,21.3 17.3,38.6 38.6,38.6 z"
   id="path4"
   inkscape:connector-curvature="0"
   style="fill:#646464;fill-opacity:1" /><path
   d="m 744.3,242.1 h 14 c 21.3,0 38.6,-17.3 38.6,-38.6 V 87.9 57.2 c 0,-21.3 -17.3,-38.6 -38.6,-38.6 h -14 c -21.3,0 -38.6,17.3 -38.6,38.6 v 30.7 115.6 c 0,21.3 17.3,38.6 38.6,38.6 z"
   id="path6"
   inkscape:connector-curvature="0"
   style="fill:#646464;fill-opacity:1" /><path
   d="m 927.3,98 h -99 v 115.6 c 0,38.6 -31.4,59.8 -69.9,59.8 h -14 c -38.6,0 -69.9,-31.4 -69.9,-69.9 V 98 H 333.4 v 106.5 c 0,38.6 -31.4,69.9 -69.9,69.9 h -14 c -38.6,0 -69.9,-31.4 -69.9,-69.9 V 98 H 72.7 C 38.1,98 10,126.2 10,160.7 v 757.9 c 0,34.6 28.1,62.7 62.7,62.7 h 854.6 c 34.6,0 62.7,-28.1 62.7,-62.7 V 160.7 C 990,126.2 961.9,98 927.3,98 Z m 0,820.6 H 72.7 V 346.3 h 854.6 v 572.3 c 0,0 0,0 0,0 z"
   id="path8"
   inkscape:connector-curvature="0"
   style="fill:#b82601;fill-opacity:1" /><g
   id="g35" /><g
   id="g37" /><g
   id="g39" /><g
   id="g41" /><g
   id="g43" /><g
   id="g45" /><g
   id="g47" /><g
   id="g49" /><g
   id="g51" /><g
   id="g53" /><g
   id="g55" /><g
   id="g57" /><g
   id="g59" /><g
   id="g61" /><g
   id="g63" />
<rect
   style="opacity:1;fill:#fffff1;fill-opacity:1;fill-rule:nonzero;stroke:none;stroke-width:1.00157475;stroke-linecap:round;stroke-linejoin:round;stroke-miterlimit:4;stroke-dasharray:none;stroke-dashoffset:0;stroke-opacity:1"
   id="rect2973"
   width="854.59998"
   height="572.29999"
   x="72.699997"
   y="346.29999" /><path
   d="m 538.0477,524.03286 h 120.34186 c 4.8094,0 8.65692,-3.84752 8.65692,-8.65692 V 411.17228 c 0,-4.8094 -3.84752,-8.65692 -8.65692,-8.65692 H 538.0477 c -4.8094,0 -8.65692,3.84752 -8.65692,8.65692 v 104.20366 c 0,4.70252 3.84752,8.65692 8.65692,8.65692 z"
   id="path10"
   inkscape:connector-curvature="0"
   style="stroke-width:1.06875551" /><path
   d="m 734.48495,524.03286 h 120.34187 c 4.8094,0 8.65692,-3.84752 8.65692,-8.65692 V 411.17228 c 0,-4.8094 -3.84752,-8.65692 -8.65692,-8.65692 H 734.48495 c -4.80939,0 -8.65691,3.84752 -8.65691,8.65692 v 104.20366 c 0,4.70252 3.84752,8.65692 8.65691,8.65692 z"
   id="path12"
   inkscape:connector-curvature="0"
   style="stroke-width:1.06875551" /><path
   d="m 145.17318,694.60623 h 120.34187 c 4.8094,0 8.65692,-3.84752 8.65692,-8.65691 V 581.74566 c 0,-4.8094 -3.84752,-8.65692 -8.65692,-8.65692 H 145.17318 c -4.8094,0 -8.65692,3.84752 -8.65692,8.65692 v 104.20366 c 0,4.80939 3.9544,8.65691 8.65692,8.65691 z"
   id="path14"
   inkscape:connector-curvature="0"
   style="stroke-width:1.06875551" /><path
   d="m 341.61044,694.60623 h 120.34187 c 4.8094,0 8.65692,-3.84752 8.65692,-8.65691 V 581.74566 c 0,-4.8094 -3.84752,-8.65692 -8.65692,-8.65692 H 341.61044 c -4.8094,0 -8.65692,3.84752 -8.65692,8.65692 v 104.20366 c 0,4.80939 3.84752,8.65691 8.65692,8.65691 z"
   id="path16"
   inkscape:connector-curvature="0"
   style="stroke-width:1.06875551" /><path
   d="m 538.0477,694.60623 h 120.34186 c 4.8094,0 8.65692,-3.84752 8.65692,-8.65691 V 581.74566 c 0,-4.8094 -3.84752,-8.65692 -8.65692,-8.65692 H 538.0477 c -4.8094,0 -8.65692,3.84752 -8.65692,8.65692 v 104.20366 c 0,4.80939 3.84752,8.65691 8.65692,8.65691 z"
   id="path18"
   inkscape:connector-curvature="0"
   style="fill:#b40000;fill-opacity:1;stroke-width:1.06875551" /><path
   d="m 734.48495,694.60623 h 120.34187 c 4.8094,0 8.65692,-3.84752 8.65692,-8.65691 V 581.74566 c 0,-4.8094 -3.84752,-8.65692 -8.65692,-8.65692 H 734.48495 c -4.80939,0 -8.65691,3.84752 -8.65691,8.65692 v 104.20366 c 0,4.80939 3.84752,8.65691 8.65691,8.65691 z"
   id="path20"
   inkscape:connector-curvature="0"
   style="stroke-width:1.06875551" /><path
   d="M 265.51505,743.76899 H 145.17318 c -4.8094,0 -8.65692,3.84752 -8.65692,8.65692 v 104.20366 c 0,4.8094 3.84752,8.65692 8.65692,8.65692 h 120.34187 c 4.8094,0 8.65692,-3.84752 8.65692,-8.65692 V 752.42591 c 0,-4.8094 -3.84752,-8.65692 -8.65692,-8.65692 z"
   id="path22"
   inkscape:connector-curvature="0"
   style="fill:#006500;fill-opacity:1;stroke-width:1.06875551" /><path
   d="M 461.95231,743.76899 H 341.61044 c -4.8094,0 -8.65692,3.84752 -8.65692,8.65692 v 104.20366 c 0,4.8094 3.84752,8.65692 8.65692,8.65692 h 120.34187 c 4.8094,0 8.65692,-3.84752 8.65692,-8.65692 V 752.42591 c 0,-4.8094 -3.84752,-8.65692 -8.65692,-8.65692 z"
   id="path24"
   inkscape:connector-curvature="0"
   style="stroke-width:1.06875551" /><path
   d="M 658.38956,743.76899 H 538.0477 c -4.8094,0 -8.65692,3.84752 -8.65692,8.65692 v 104.20366 c 0,4.8094 3.84752,8.65692 8.65692,8.65692 h 120.34186 c 4.8094,0 8.65692,-3.84752 8.65692,-8.65692 V 752.42591 c 0,-4.8094 -3.84752,-8.65692 -8.65692,-8.65692 z"
   id="path26"
   inkscape:connector-curvature="0"
   style="stroke-width:1.06875551" /><path
   d="M 854.82682,743.76899 H 734.48495 c -4.80939,0 -8.65691,3.84752 -8.65691,8.65692 v 104.20366 c 0,4.8094 3.84752,8.65692 8.65691,8.65692 h 120.34187 c 4.8094,0 8.65692,-3.84752 8.65692,-8.65692 V 752.42591 c 0,-4.8094 -3.95439,-8.65692 -8.65692,-8.65692 z"
   id="path28"
   inkscape:connector-curvature="0"
   style="stroke-width:1.06875551" /><path
   d="M 461.95231,402.51536 H 341.61044 c -4.8094,0 -8.65692,3.84752 -8.65692,8.65692 v 104.20366 c 0,4.8094 3.84752,8.65692 8.65692,8.65692 h 120.34187 c 4.8094,0 8.65692,-3.84752 8.65692,-8.65692 V 411.17228 c 0,-4.8094 -3.9544,-8.65692 -8.65692,-8.65692 z"
   id="path28-4"
   inkscape:connector-curvature="0"
   style="fill:#c8c8c8;fill-opacity:1;stroke:none;stroke-width:1.06875551;stroke-opacity:1" /><path
   d="M 265.51505,402.51536 H 145.17318 c -4.8094,0 -8.65692,3.84752 -8.65692,8.65692 v 104.20366 c 0,4.8094 3.84752,8.65692 8.65692,8.65692 h 120.34187 c 4.8094,0 8.65692,-3.84752 8.65692,-8.65692 V 411.17228 c 0,-4.8094 -3.9544,-8.65692 -8.65692,-8.65692 z"
   id="path28-6"
   inkscape:connector-curvature="0"
   style="fill:#c8c8c8;fill-opacity:1;stroke:none;stroke-width:1.06875551;stroke-opacity:1" /></svg>