<?xml version="1.0" encoding="UTF-8" standalone="no"?>
<!-- Generator: Adobe Illustrator 19.0.0, SVG Export Plug-In . SVG Version: 6.00 Build 0)  -->

<svg
   xmlns:dc="http://purl.org/dc/elements/1.1/"
   xmlns:cc="http://creativecommons.org/ns#"
   xmlns:rdf="http://www.w3.org/1999/02/22-rdf-syntax-ns#"
   xmlns:svg="http://www.w3.org/2000/svg"
   xmlns="http://www.w3.org/2000/svg"
   xmlns:sodipodi="http://sodipodi.sourceforge.net/DTD/sodipodi-0.dtd"
   xmlns:inkscape="http://www.inkscape.org/namespaces/inkscape"
   version="1.1"
   id="Layer_1"
   x="0px"
   y="0px"
   viewBox="0 0 419.99998 419.99998"
   xml:space="preserve"
   sodipodi:docname="save.svg"
   inkscape:version="0.92.5 (2060ec1f9f, 2020-04-08)"
   width="420"
   height="420"><metadata
   id="metadata958"><rdf:RDF><cc:Work
       rdf:about=""><dc:format>image/svg+xml</dc:format><dc:type
         rdf:resource="http://purl.org/dc/dcmitype/StillImage" /><dc:title></dc:title></cc:Work></rdf:RDF></metadata><defs
   id="defs956">
	
	
	
	
	
</defs><sodipodi:namedview
   pagecolor="#ffffff"
   bordercolor="#666666"
   borderopacity="1"
   objecttolerance="10"
   gridtolerance="10"
   guidetolerance="10"
   inkscape:pageopacity="0"
   inkscape:pageshadow="2"
   inkscape:window-width="1771"
   inkscape:window-height="963"
   id="namedview954"
   showgrid="false"
   inkscape:zoom="0.94161655"
   inkscape:cx="211.16824"
   inkscape:cy="207.98224"
   inkscape:window-x="64"
   inkscape:window-y="24"
   inkscape:window-maximized="0"
   inkscape:current-layer="Layer_1"
   fit-margin-top="0"
   fit-margin-left="0"
   fit-margin-right="0"
   fit-margin-bottom="0" />
<circle
   style="opacity:1;fill:#b82601;fill-opacity:1;fill-rule:nonzero;stroke:none;stroke-width:11.77376652;stroke-linecap:round;stroke-linejoin:round;stroke-miterlimit:4;stroke-dasharray:none;stroke-dashoffset:0;stroke-opacity:1"
   id="path1503"
   cx="210"
   cy="210"
   r="210" /><path
   inkscape:connector-curvature="0"
   id="path911"
   d="M 88.656236,72.003754 H 333.68024 c 9.661,0 17.502,7.832 17.502,17.502 V 334.52975 c 0,9.67 -7.841,17.502 -17.502,17.502 H 88.656236 c -9.661,-10e-4 -17.502,-7.833 -17.502,-17.502 V 89.505754 c 0,-9.661 7.841,-17.502 17.502,-17.502 z"
   style="fill:#324dc2;fill-opacity:1" /><path
   inkscape:connector-curvature="0"
   id="path913"
   d="m 123.65924,247.02075 h 175.017 c 9.661,0 17.502,7.841 17.502,17.502 v 87.509 h -210.021 v -87.509 c 0,-9.661 7.841,-17.502 17.502,-17.502 z"
   style="fill:#ccd0d2" /><path
   inkscape:connector-curvature="0"
   id="path915"
   d="m 123.65924,229.51875 h 175.017 c 9.661,0 17.502,7.841 17.502,17.502 v 26.253 h -210.021 v -26.253 c 0,-9.661 7.841,-17.502 17.502,-17.502 z"
   style="fill:#e4e7e7" /><path
   inkscape:connector-curvature="0"
   id="path917"
   d="M 316.17824,72.003754 V 177.01375 c 0,9.67 -7.841,17.502 -17.502,17.502 h -175.017 c -9.661,0 -17.502,-7.832 -17.502,-17.502 V 72.003754 Z"
   style="fill:#2b414d" /><path
   inkscape:connector-curvature="0"
   id="path919"
   d="m 193.66624,72.003754 v 96.258996 c 0,4.83 3.92,8.751 8.751,8.751 h 87.509 c 4.839,0 8.751,-3.92 8.751,-8.751 V 72.003754 Z m 87.509,78.757996 c 0,4.83 -3.912,8.751 -8.751,8.751 h -8.751 c -4.839,0 -8.751,-3.92 -8.751,-8.751 V 98.256754 c 0,-4.83 3.912,-8.751 8.751,-8.751 h 8.751 c 4.839,0 8.751,3.92 8.751,8.751 z"
   style="fill:#ccd0d2" />
<g
   id="g923"
   transform="translate(71.154236,72.003754)">
</g>
<g
   id="g925"
   transform="translate(71.154236,72.003754)">
</g>
<g
   id="g927"
   transform="translate(71.154236,72.003754)">
</g>
<g
   id="g929"
   transform="translate(71.154236,72.003754)">
</g>
<g
   id="g931"
   transform="translate(71.154236,72.003754)">
</g>
<g
   id="g933"
   transform="translate(71.154236,72.003754)">
</g>
<g
   id="g935"
   transform="translate(71.154236,72.003754)">
</g>
<g
   id="g937"
   transform="translate(71.154236,72.003754)">
</g>
<g
   id="g939"
   transform="translate(71.154236,72.003754)">
</g>
<g
   id="g941"
   transform="translate(71.154236,72.003754)">
</g>
<g
   id="g943"
   transform="translate(71.154236,72.003754)">
</g>
<g
   id="g945"
   transform="translate(71.154236,72.003754)">
</g>
<g
   id="g947"
   transform="translate(71.154236,72.003754)">
</g>
<g
   id="g949"
   transform="translate(71.154236,72.003754)">
</g>
<g
   id="g951"
   transform="translate(71.154236,72.003754)">
</g>
</svg>