<?xml version="1.0" encoding="UTF-8" standalone="no"?>
<!-- Svg Vector Icons : http://www.onlinewebfonts.com/icon -->

<svg
   xmlns:dc="http://purl.org/dc/elements/1.1/"
   xmlns:cc="http://creativecommons.org/ns#"
   xmlns:rdf="http://www.w3.org/1999/02/22-rdf-syntax-ns#"
   xmlns:svg="http://www.w3.org/2000/svg"
   xmlns="http://www.w3.org/2000/svg"
   xmlns:sodipodi="http://sodipodi.sourceforge.net/DTD/sodipodi-0.dtd"
   xmlns:inkscape="http://www.inkscape.org/namespaces/inkscape"
   version="1.1"
   x="0px"
   y="0px"
   viewBox="0 0 511.72067 511.80475"
   enable-background="new 0 0 1000 1000"
   xml:space="preserve"
   id="svg67"
   sodipodi:docname="unboost.svg"
   inkscape:version="0.92.5 (2060ec1f9f, 2020-04-08)"
   width="511.72067"
   height="511.80475"><defs
   id="defs71" /><sodipodi:namedview
   pagecolor="#ffffff"
   bordercolor="#666666"
   borderopacity="1"
   objecttolerance="10"
   gridtolerance="10"
   guidetolerance="10"
   inkscape:pageopacity="0"
   inkscape:pageshadow="2"
   inkscape:window-width="1458"
   inkscape:window-height="989"
   id="namedview69"
   showgrid="false"
   inkscape:zoom="1.1804921"
   inkscape:cx="220.63913"
   inkscape:cy="190.06851"
   inkscape:window-x="328"
   inkscape:window-y="24"
   inkscape:window-maximized="0"
   inkscape:current-layer="svg67"
   fit-margin-top="0"
   fit-margin-left="0"
   fit-margin-right="0"
   fit-margin-bottom="0" />
<metadata
   id="metadata2"> Svg Vector Icons : http://www.onlinewebfonts.com/icon <rdf:RDF><cc:Work
     rdf:about=""><dc:format>image/svg+xml</dc:format><dc:type
       rdf:resource="http://purl.org/dc/dcmitype/StillImage" /><dc:title /></cc:Work></rdf:RDF></metadata>
<ellipse
   style="opacity:1;fill:#b82601;fill-opacity:1;fill-rule:nonzero;stroke:none;stroke-width:1.00157475;stroke-linecap:round;stroke-linejoin:round;stroke-miterlimit:4;stroke-dasharray:none;stroke-dashoffset:0;stroke-opacity:1"
   id="path1077"
   cx="256.28943"
   cy="257.35251"
   rx="256.28943"
   ry="257.20804" /><g
   id="g35"
   transform="translate(-47.29591,-31.287757)" /><g
   id="g37"
   transform="translate(-47.29591,-31.287757)" /><g
   id="g39"
   transform="translate(-47.29591,-31.287757)" /><g
   id="g41"
   transform="translate(-47.29591,-31.287757)" /><g
   id="g43"
   transform="translate(-47.29591,-31.287757)" /><g
   id="g45"
   transform="translate(-47.29591,-31.287757)" /><g
   id="g47"
   transform="translate(-47.29591,-31.287757)" /><g
   id="g49"
   transform="translate(-47.29591,-31.287757)" /><g
   id="g51"
   transform="translate(-47.29591,-31.287757)" /><g
   id="g53"
   transform="translate(-47.29591,-31.287757)" /><g
   id="g55"
   transform="translate(-47.29591,-31.287757)" /><g
   id="g57"
   transform="translate(-47.29591,-31.287757)" /><g
   id="g59"
   transform="translate(-47.29591,-31.287757)" /><g
   id="g61"
   transform="translate(-47.29591,-31.287757)" /><g
   id="g63"
   transform="translate(-47.29591,-31.287757)" />
<path
   inkscape:connector-curvature="0"
   id="path1067"
   d="m 80.2471,442.62855 -1.90499,-2.25 2.25,1.90499 c 2.11444,1.79022 2.70524,2.59501 1.90499,2.59501 -0.18976,0 -1.20226,-1.0125 -2.25,-2.25 z m 348.59501,1.87244 c 0,-0.20765 0.7875,-0.99515 1.75,-1.75 1.58606,-1.24387 1.62143,-1.2085 0.37756,0.37756 -1.30637,1.66575 -2.12756,2.19548 -2.12756,1.37244 z M 68.2471,430.62855 l -1.90499,-2.25 2.25,1.90499 c 2.11444,1.79022 2.70524,2.59501 1.90499,2.59501 -0.18976,0 -1.20226,-1.0125 -2.25,-2.25 z m 373.59501,0.87244 c 0,-0.20765 0.7875,-0.99515 1.75,-1.75 1.58606,-1.24387 1.62143,-1.2085 0.37756,0.37756 -1.30637,1.66575 -2.12756,2.19548 -2.12756,1.37244 z m -374,-350.12244 c 1.29174,-1.375 2.57363,-2.5 2.84863,-2.5 0.275,0 -0.55689,1.125 -1.84863,2.5 -1.29175,1.375 -2.57363,2.5 -2.84863,2.5 -0.275,0 0.55688,-1.125 1.84863,-2.5 z m 375.40499,0.25 -1.90499,-2.25 2.25,1.90499 c 2.11444,1.79022 2.70524,2.59501 1.90499,2.59501 -0.18976,0 -1.20226,-1.0125 -2.25,-2.25 z m -362.40499,-13.25 c 1.29174,-1.375 2.57363,-2.5 2.84863,-2.5 0.275,0 -0.55689,1.125 -1.84863,2.5 -1.29175,1.375 -2.57363,2.5 -2.84863,2.5 -0.275,0 0.55688,-1.125 1.84863,-2.5 z m 347.87244,-1.25 c -1.24387,-1.58606 -1.2085,-1.62143 0.37756,-0.37755 1.66575,1.30636 2.19548,2.12755 1.37244,2.12755 -0.20765,0 -0.99515,-0.7875 -1.75,-1.75 z"
   style="fill:#fecece" /><path
   inkscape:connector-curvature="0"
   id="path1065"
   d="m 271.65461,511.19544 c 0.72187,-0.28887 1.58438,-0.25335 1.91667,0.0789 0.33229,0.33229 -0.25834,0.56864 -1.3125,0.52522 -1.16495,-0.048 -1.4019,-0.28494 -0.60417,-0.60416 z m 164.6875,-74.31689 c 2.70865,-2.75 5.14982,-5 5.42482,-5 0.275,0 -1.71617,2.25 -4.42482,5 -2.70865,2.75 -5.14982,5 -5.42482,5 -0.275,0 1.71617,-2.25 4.42482,-5 z m -362.04705,-0.25 -3.95295,-4.25 4.25,3.95295 c 3.95246,3.6762 4.70952,4.54705 3.95295,4.54705 -0.16338,0 -2.07588,-1.9125 -4.25,-4.25 z m 436.626,-164.33333 c 0.048,-1.16495 0.28494,-1.4019 0.60416,-0.60417 0.28887,0.72187 0.25335,1.58438 -0.0789,1.91667 -0.33229,0.33229 -0.56864,-0.25834 -0.52522,-1.3125 z m 0,-33 c 0.048,-1.16495 0.28494,-1.4019 0.60416,-0.60417 0.28887,0.72187 0.25335,1.58437 -0.0789,1.91667 -0.33229,0.33229 -0.56864,-0.25834 -0.52522,-1.3125 z m -75.11311,-165.16667 -5.46584,-5.75 5.75,5.46584 c 3.1625,3.00621 5.75,5.59371 5.75,5.75 0,0.74225 -0.95622,-0.12391 -6.03416,-5.46584 z m -361.46584,0.75 c 2.14824,-2.2 4.1309,-4 4.4059,-4 0.275,0 -1.25766,1.8 -3.4059,4 -2.14824,2.2 -4.1309,4 -4.4059,4 -0.275,0 1.25766,-1.8 3.4059,-4 z M 271.65461,0.19544 c 0.72187,-0.28887 1.58438,-0.25335 1.91667,0.0789 0.33229,0.3323 -0.25834,0.56864 -1.3125,0.52522 -1.16495,-0.048 -1.4019,-0.28494 -0.60417,-0.60416 z"
   style="fill:#feaeae"
   sodipodi:nodetypes="cccccsssssscsssccccccccccscssssssssccccc" /><path
   inkscape:connector-curvature="0"
   id="path1063"
   d="m 241.59211,511.21627 c 0.6875,-0.27741 1.8125,-0.27741 2.5,0 0.6875,0.27741 0.125,0.50439 -1.25,0.50439 -1.375,0 -1.9375,-0.22698 -1.25,-0.50439 z m 27.0625,-0.0208 c 0.72187,-0.28887 1.58438,-0.25335 1.91667,0.0789 0.33229,0.33229 -0.25834,0.56864 -1.3125,0.52522 -1.16495,-0.048 -1.4019,-0.28494 -0.60417,-0.60416 z M 0,268.87855 c 0,-1.375 0.22698,-1.9375 0.50439,-1.25 0.27741,0.6875 0.27741,1.8125 0,2.5 C 0.22698,270.81605 0,270.25355 0,268.87855 Z m 510.92106,0.41667 c 0.048,-1.16495 0.28494,-1.4019 0.60416,-0.60417 0.28887,0.72187 0.25335,1.58438 -0.0789,1.91667 -0.33229,0.33229 -0.56864,-0.25834 -0.52522,-1.3125 z M 0,242.87855 c 0,-1.375 0.22698,-1.9375 0.50439,-1.25 0.27741,0.6875 0.27741,1.8125 0,2.5 C 0.22698,244.81605 0,244.25355 0,242.87855 Z m 510.92106,-0.58333 c 0.048,-1.16495 0.28494,-1.4019 0.60416,-0.60417 0.28887,0.72187 0.25335,1.58437 -0.0789,1.91667 -0.33229,0.33229 -0.56864,-0.25834 -0.52522,-1.3125 z M 241.59211,0.21627 c 0.6875,-0.27741 1.8125,-0.27741 2.5,0 0.6875,0.27741 0.125,0.50439 -1.25,0.50439 -1.375,0 -1.9375,-0.22698 -1.25,-0.50439 z m 27.0625,-0.0208 c 0.72187,-0.28887 1.58438,-0.25335 1.91667,0.0789 0.33229,0.3323 -0.25834,0.56864 -1.3125,0.52522 -1.16495,-0.048 -1.4019,-0.28494 -0.60417,-0.60416 z"
   style="fill:#fe8e8e" /><path
   inkscape:connector-curvature="0"
   id="path1061"
   d="m 246.09211,511.18922 c 0.9625,-0.25152 2.5375,-0.25152 3.5,0 0.9625,0.25153 0.175,0.45733 -1.75,0.45733 -1.925,0 -2.7125,-0.2058 -1.75,-0.45733 z m 18.5,0.027 c 0.6875,-0.27741 1.8125,-0.27741 2.5,0 0.6875,0.27741 0.125,0.50439 -1.25,0.50439 -1.375,0 -1.9375,-0.22698 -1.25,-0.50439 z M 511,265.87855 c 0,-1.375 0.22698,-1.9375 0.50439,-1.25 0.27741,0.6875 0.27741,1.8125 0,2.5 -0.27741,0.6875 -0.50439,0.125 -0.50439,-1.25 z m -510.92589,-2 c 0,-1.925 0.2058,-2.7125 0.45733,-1.75 0.25152,0.9625 0.25152,2.5375 0,3.5 -0.25153,0.9625 -0.45733,0.175 -0.45733,-1.75 z m 0,-16 c 0,-1.925 0.2058,-2.7125 0.45733,-1.75 0.25152,0.9625 0.25152,2.5375 0,3.5 -0.25153,0.9625 -0.45733,0.175 -0.45733,-1.75 z m 510.92589,-2 c 0,-1.375 0.22698,-1.9375 0.50439,-1.25 0.27741,0.6875 0.27741,1.8125 0,2.5 -0.27741,0.6875 -0.50439,0.125 -0.50439,-1.25 z M 246.09211,0.18922 c 0.9625,-0.25152 2.5375,-0.25152 3.5,0 0.9625,0.25153 0.175,0.45733 -1.75,0.45733 -1.925,0 -2.7125,-0.2058 -1.75,-0.45733 z m 18.5,0.0271 c 0.6875,-0.27741 1.8125,-0.27741 2.5,0 0.6875,0.27741 0.125,0.50439 -1.25,0.50439 -1.375,0 -1.9375,-0.22698 -1.25,-0.50439 z"
   style="fill:#fe6e6e" /><path
   inkscape:connector-curvature="0"
   id="path1059"
   d="m 251.59211,511.21627 c 0.6875,-0.27741 1.8125,-0.27741 2.5,0 0.6875,0.27741 0.125,0.50439 -1.25,0.50439 -1.375,0 -1.9375,-0.22698 -1.25,-0.50439 z m 7.5,-0.027 c 0.9625,-0.25152 2.5375,-0.25152 3.5,0 0.9625,0.25153 0.175,0.45733 -1.75,0.45733 -1.925,0 -2.7125,-0.2058 -1.75,-0.45733 z M 82.71456,444.12855 c -1.24388,-1.58606 -1.20851,-1.62143 0.37755,-0.37756 0.9625,0.75485 1.75,1.54235 1.75,1.75 0,0.82304 -0.82119,0.29331 -2.12755,-1.37244 z m 344.12755,1.37244 c 0,-0.20765 0.7875,-0.99515 1.75,-1.75 1.58606,-1.24387 1.62143,-1.2085 0.37756,0.37756 -1.30637,1.66575 -2.12756,2.19548 -2.12756,1.37244 z M 66.71456,428.12855 c -1.24388,-1.58606 -1.20851,-1.62143 0.37755,-0.37756 0.9625,0.75485 1.75,1.54235 1.75,1.75 0,0.82304 -0.82119,0.29331 -2.12755,-1.37244 z m 376.12755,1.37244 c 0,-0.20765 0.7875,-0.99515 1.75,-1.75 1.58606,-1.24387 1.62143,-1.2085 0.37756,0.37756 -1.30637,1.66575 -2.12756,2.19548 -2.12756,1.37244 z m 68.232,-168.62244 c 0,-1.925 0.2058,-2.7125 0.45733,-1.75 0.25152,0.9625 0.25152,2.5375 0,3.5 -0.25153,0.9625 -0.45733,0.175 -0.45733,-1.75 z M 0,258.87855 c 0,-1.375 0.22698,-1.9375 0.50439,-1.25 0.27741,0.6875 0.27741,1.8125 0,2.5 C 0.22698,260.81605 0,260.25355 0,258.87855 Z m 0,-6 c 0,-1.375 0.22698,-1.9375 0.50439,-1.25 0.27741,0.6875 0.27741,1.8125 0,2.5 C 0.22698,254.81605 0,254.25355 0,252.87855 Z m 511.07411,-2 c 0,-1.925 0.2058,-2.7125 0.45733,-1.75 0.25152,0.9625 0.25152,2.5375 0,3.5 -0.25153,0.9625 -0.45733,0.175 -0.45733,-1.75 z M 355.4064,225.58542 c 0.37553,-0.98622 0.93469,-1.54122 1.24258,-1.23333 0.30789,0.30789 6.4e-4,1.11479 -0.68278,1.79313 -0.98762,0.98026 -1.10248,0.8654 -0.5598,-0.5598 z M 65.84211,84.501 c 0,-0.20766 0.7875,-0.99516 1.75,-1.75 1.58606,-1.24388 1.62143,-1.20851 0.37755,0.37755 -1.30636,1.66575 -2.12755,2.19548 -2.12755,1.37245 z m 377.87244,-1.37245 c -1.24387,-1.58606 -1.2085,-1.62143 0.37756,-0.37755 0.9625,0.75484 1.75,1.54234 1.75,1.75 0,0.82303 -0.82119,0.2933 -2.12756,-1.37245 z M 81.84211,68.501 c 0,-0.20766 0.7875,-0.99516 1.75,-1.75 1.58606,-1.24388 1.62143,-1.20851 0.37755,0.37755 -1.30636,1.66575 -2.12755,2.19548 -2.12755,1.37245 z m 345.87244,-1.37245 c -1.24387,-1.58606 -1.2085,-1.62143 0.37756,-0.37755 0.9625,0.75484 1.75,1.54234 1.75,1.75 0,0.82303 -0.82119,0.2933 -2.12756,-1.37245 z M 251.59211,0.21627 c 0.6875,-0.27741 1.8125,-0.27741 2.5,0 0.6875,0.27741 0.125,0.50439 -1.25,0.50439 -1.375,0 -1.9375,-0.22698 -1.25,-0.50439 z m 8.51903,-0.0307 c 0.97297,-0.25354 2.32297,-0.23687 3,0.037 0.67703,0.27393 -0.11903,0.48137 -1.76903,0.46099 -1.65,-0.0204 -2.20394,-0.2445 -1.23097,-0.49804 z"
   style="fill:#fe5656" /><path
   style="fill:#000000;stroke-width:0.69875103"
   d="m 82.155387,418.19095 c 11.939268,-19.99669 18.090093,-29.43507 31.275983,-47.99268 4.90562,-6.90413 13.9851,-20.6227 20.1766,-30.48573 6.19148,-9.86303 14.98537,-22.93603 19.54196,-29.05111 13.21749,-17.73826 15.50483,-20.99197 23.27061,-33.10186 l 7.3429,-11.45048 -1.66702,-6.59561 c -2.09552,-8.291 -4.54104,-13.84361 -9.26149,-21.02859 -10.40022,-15.83007 -35.29861,-64.76702 -45.72988,-89.88058 -9.50142,-22.87486 -13.33247,-35.4695 -13.33247,-43.83062 v -5.428105 l 10.70251,-10.367158 c 33.96395,-32.8997 46.90525,-44.736742 52.07522,-47.631749 2.42609,-1.358533 2.53839,-1.360896 3.87964,-0.08174 1.84127,1.756032 3.32278,6.109661 8.25016,24.244537 7.94724,29.2492 10.59813,37.687715 16.28407,51.836605 7.18068,17.8685 21.48632,44.97765 28.38805,53.79534 3.50455,4.47746 3.77488,4.66553 6.70575,4.66553 h 3.05398 l 11.77535,-15.60154 c 6.47645,-8.58084 16.74321,-22.41136 22.81504,-30.73451 6.07185,-8.32315 12.63946,-16.90695 14.59474,-19.07511 l 3.55502,-3.94211 6.90804,-1.29569 c 8.56032,-1.60562 22.67401,-1.18825 35.97424,1.0638 12.50316,2.1171 39.42607,7.24292 39.7311,7.56436 0.4449,0.46885 -2.74567,13.37433 -4.77134,19.29953 -2.66385,7.79182 -6.3953,14.16046 -14.50733,24.76023 -3.78599,4.94705 -10.86485,14.32066 -15.7308,20.83026 -4.86595,6.5096 -13.79094,18.00657 -19.83328,25.54881 -22.55712,28.15645 -25.403,32.82871 -25.91178,42.54084 l -0.2847,5.43475 7.32502,6.4558 c 15.0511,13.26505 23.5512,19.15235 40.4495,28.01589 27.96264,14.66706 52.43401,22.85339 125.89215,42.11432 l 17.32512,4.54269 -13.2411,7.58939 c -37.5689,21.53337 -46.29128,25.39337 -61.33127,27.14152 -20.00295,2.325 -58.89626,-4.46523 -99.10234,-17.30191 -21.1207,-6.74324 -31.0869,-11.59604 -51.65005,-25.14971 -13.63857,-8.98949 -16.34595,-10.20633 -23.40082,-10.51753 l -5.78999,-0.25541 -10.20578,9.85949 c -33.65275,32.51085 -43.38995,41.20709 -58.53344,52.27583 -3.74369,2.73636 -11.581,8.73965 -17.41625,13.34065 -11.93332,9.40927 -20.21778,14.5919 -33.28546,20.82289 -13.46662,6.4212 -21.809297,9.28664 -28.502057,9.78957 l -5.691263,0.42766 z"
   id="path1996"
   inkscape:connector-curvature="0" /></svg>