<?xml version="1.0" encoding="UTF-8" standalone="no"?>
<svg
   xmlns:dc="http://purl.org/dc/elements/1.1/"
   xmlns:cc="http://creativecommons.org/ns#"
   xmlns:rdf="http://www.w3.org/1999/02/22-rdf-syntax-ns#"
   xmlns:svg="http://www.w3.org/2000/svg"
   xmlns="http://www.w3.org/2000/svg"
   xmlns:sodipodi="http://sodipodi.sourceforge.net/DTD/sodipodi-0.dtd"
   xmlns:inkscape="http://www.inkscape.org/namespaces/inkscape"
   version="1.1"
   width="512.57886"
   height="514.41608"
   viewBox="-1 -1 512.57886 514.41608"
   id="svg982"
   sodipodi:docname="service-off.svg"
   inkscape:version="0.92.5 (2060ec1f9f, 2020-04-08)">
  <metadata
     id="metadata988">
    <rdf:RDF>
      <cc:Work
         rdf:about="">
        <dc:format>image/svg+xml</dc:format>
        <dc:type
           rdf:resource="http://purl.org/dc/dcmitype/StillImage" />
        <dc:title></dc:title>
      </cc:Work>
    </rdf:RDF>
  </metadata>
  <defs
     id="defs986" />
  <sodipodi:namedview
     pagecolor="#ffffff"
     bordercolor="#666666"
     borderopacity="1"
     objecttolerance="10"
     gridtolerance="10"
     guidetolerance="10"
     inkscape:pageopacity="0"
     inkscape:pageshadow="2"
     inkscape:window-width="1613"
     inkscape:window-height="960"
     id="namedview984"
     showgrid="false"
     fit-margin-top="0"
     fit-margin-left="0"
     fit-margin-right="0"
     fit-margin-bottom="0"
     inkscape:zoom="0.61311214"
     inkscape:cx="-116.1827"
     inkscape:cy="443.64644"
     inkscape:window-x="64"
     inkscape:window-y="24"
     inkscape:window-maximized="0"
     inkscape:current-layer="svg982" />
  <!-- Exported by Scratch - http://scratch.mit.edu/ -->
  <ellipse
     style="opacity:1;fill:#b82601;fill-opacity:1;fill-rule:nonzero;stroke:none;stroke-width:1.00157475;stroke-linecap:round;stroke-linejoin:round;stroke-miterlimit:4;stroke-dasharray:none;stroke-dashoffset:0;stroke-opacity:1"
     id="path1077"
     cx="255.28943"
     cy="256.20804"
     rx="256.28943"
     ry="257.20804" />
  <g
     id="g1071"
     transform="matrix(0.64161553,0,0,0.62444769,421.50003,171.53804)"
     style="fill:#ffffff;fill-opacity:0.9859813">
    <path
       id="path857"
       transform="translate(-1,-1)"
       d="m -257.70117,-213.01953 -15.63477,15.99023 v 64.375 l -43.89844,-39.82617 h -33.3457 v 25.43555 l 77.24414,66.001951 v 22.970703 l -47.97656,-38.330078 -29.26758,-1.341797 v 26.734375 l 77.24414,57.007813 v 36.664062 l -0.7832,-0.535156 -0.002,-1.09375 -69.54688,-55.519531 -6.91211,4.330078 v 88.990234 l -28.6543,-22.875 3.63868,-95.933593 -20.89453,-16.679688 -17.21094,23.712891 0.0254,61.4062498 -17.95117,-14.3320313 -3.39258,-101.5429725 -19.87695,-15.86914 -20.80469,26.06055 3.73828,59.154297 -50.31055,-40.164063 -22.25195,2.242188 270.86914,216.232418 15.95508,-6.67382 z m -56.27735,250.138671 40.64258,29.183593 -0.80078,53.552736 c -14.33722,-11.44526 -27.9987,-22.349653 -42.33594,-33.794923 z"
       style="fill:#ffffff;fill-opacity:0.9859813;fill-rule:evenodd;stroke:none;stroke-width:1px;stroke-linecap:butt;stroke-linejoin:miter;stroke-opacity:1"
       inkscape:connector-curvature="0" />
    <path
       id="path857-4"
       d="m -258.70121,-214.01953 15.63477,15.99023 v 64.375 l 43.89844,-39.82617 h 33.3457 v 25.43555 l -77.24414,66.001953 v 22.9707 l 47.97656,-38.33008 29.26758,-1.34179 v 26.73437 l -77.24414,57.00781 v 36.66407 l 0.7832,-0.53516 0.002,-1.09375 69.54688,-55.51953 6.91211,4.33008 v 88.99023 l 28.6543,-22.875 -3.63868,-95.93359 20.89453,-16.67969 17.21094,23.71289 -0.0254,61.40625 17.95117,-14.3320295 3.39258,-101.5429735 19.87695,-15.86914 20.80469,26.060553 -3.73828,59.15429 50.31055,-40.16406 22.25195,2.24219 -270.86914,216.232417 -15.95508,-6.67382 z m 56.27735,250.138673 -40.64258,29.18359 0.80078,53.552737 c 14.33722,-11.44526 27.9987,-22.34966 42.33594,-33.79493 z"
       style="fill:#ffffff;fill-opacity:0.9859813;fill-rule:evenodd;stroke:none;stroke-width:1px;stroke-linecap:butt;stroke-linejoin:miter;stroke-opacity:1"
       inkscape:connector-curvature="0" />
    <path
       id="path857-5"
       d="m 98.20644,233.07096 -12.129,-18.78885 -62.77525,-14.26219 48.5621,-33.9841 7.38769,-32.51704 -24.80345,-5.63521 -81.4751,60.70194 -22.39986,-5.08912 48.00666,-38.29237 7.79263,-28.24299 -26.07,-5.92297 -72.70445,62.69459 -35.75294,-8.12287 0.69537,-0.64519 1.06701,0.24037 69.54784,-55.51833 -2.69111,-7.69966 -86.77876,-19.715644 28.65486,-22.874307 92.74343,24.802199 L -4.02155,67.519292 -23.3321,45.482501 -83.21799,31.902812 -65.26532,17.572658 34.50586,36.761086 54.38421,20.893688 33.58052,-5.167662 l -58.51247,-9.46017 50.31199,-40.16225 2.74342,-22.19573 -270.86955,216.231902 2.97314,17.03715 z m -231.45441,-110.29668 -37.46266,33.16702 -52.04451,-12.64541 c 14.33723,-11.44526 27.99739,-22.3513 42.33464,-33.79658 z"
       style="fill:#ffffff;fill-opacity:0.9859813;fill-rule:evenodd;stroke:none;stroke-width:1px;stroke-linecap:butt;stroke-linejoin:miter;stroke-opacity:1"
       inkscape:connector-curvature="0" />
    <path
       id="path857-41"
       d="m -100.38565,481.27996 7.11682,-21.20103 -28.01799,-57.95802 56.85618,16.75029 30.02175,-14.51309 -11.07034,-22.90011 -98.27045,-25.80374 -9.99756,-20.68096 59.87662,13.62845 26.93415,-11.53012 -11.63563,-24.06946 -94.35592,-17.70615 -15.95735,-33.00935 0.93805,0.14093 0.47783,0.98385 86.77819,19.71631 4.33852,-6.90681 -38.73131,-80.11957 35.75391,8.12355 38.47731,87.95447 26.07126,5.92308 5.17475,-28.83989 -26.74878,-55.27414 22.39961,5.09009 47.24906,89.94449 24.80238,5.63599 7.3885,-32.51766 -29.11143,-51.63069 62.77624,14.26343 19.05798,-11.70342 -337.97965,-76.78744 -11.46,12.95271 z m -58.20058,-249.69819 -49.29288,-8.58562 -22.58687,-48.56306 c 17.88941,4.06438 34.935,7.93602 52.82443,12.00039 z"
       style="fill:#ffffff;fill-opacity:0.9859813;fill-rule:evenodd;stroke:none;stroke-width:1px;stroke-linecap:butt;stroke-linejoin:miter;stroke-opacity:1"
       inkscape:connector-curvature="0" />
    <path
       id="path857-41-2"
       d="m -418.26365,480.9288 21.00908,-7.66495 27.81553,-58.05545 22.38071,54.88443 30.07224,14.40819 10.99034,-22.93861 -41.14278,-92.89879 9.92532,-20.71573 26.70489,55.29732 25.81469,13.85618 11.55155,-24.10993 -45.02902,-84.78759 15.84202,-33.06485 0.47509,0.82103 -0.47079,0.98723 38.73044,80.11954 8.10453,-0.91838 38.45142,-80.25428 15.95741,33.01053 -44.73302,84.94381 11.63632,24.07051 25.76739,-13.94844 26.50986,-55.38914 9.99665,20.68136 -40.81574,93.04065 11.06905,22.89974 30.02276,-14.51284 22.18842,-54.96252 28.01765,57.95958 21.03635,7.59268 -150.84766,-312.04413 -17.27246,-0.87529 z m 158.8341,-201.26655 -24.04298,-43.87979 23.86153,-47.9496 c 7.98444,16.51662 15.59307,32.25354 23.57754,48.77017 z"
       style="fill:#ffffff;fill-opacity:0.9859813;fill-rule:evenodd;stroke:none;stroke-width:1px;stroke-linecap:butt;stroke-linejoin:miter;stroke-opacity:1"
       inkscape:connector-curvature="0" />
    <path
       id="path857-41-28"
       d="m -616.30681,232.28156 19.09745,11.63702 62.72507,-14.48122 -28.93043,51.73227 7.50115,32.49104 24.78365,-5.72175 46.93417,-90.11158 22.38197,-5.16728 -26.55535,55.36928 5.27637,28.8193 26.04918,-6.01392 38.17055,-88.08835 35.72437,-8.24762 -0.34526,0.88352 -1.06525,0.24798 -38.45193,80.25358 5.77398,5.76089 86.70942,-20.01843 -15.8429,33.06564 -94.29335,18.03493 -11.55193,24.11113 26.97674,11.43559 59.82671,-13.83815 -9.9262,20.71526 -98.17728,26.14783 -10.99086,22.93737 30.07266,14.40913 56.79724,-16.94929 -27.81696,58.05617 7.19031,21.17725 149.75811,-312.56849 -10.09188,-14.04486 z m 256.38729,-1.434 19.29303,-46.16578 52.36032,-11.26651 c -7.92674,16.5444 -15.4786,32.30864 -23.40534,48.85305 z"
       style="fill:#ffffff;fill-opacity:0.9859813;fill-rule:evenodd;stroke:none;stroke-width:1px;stroke-linecap:butt;stroke-linejoin:miter;stroke-opacity:1"
       inkscape:connector-curvature="0" />
    <path
       sodipodi:nodetypes="cccccccccccccccccccccccccccccccccccccc"
       id="path857-41-8"
       d="m -545.52539,-76.986328 2.80635,21.55231 50.45026,39.986403 -58.47893,9.66497 -20.7126,26.132815 19.93367,15.79923 99.70532,-19.538761 18.00199,14.268211 -59.83957,13.79022 -19.23106,22.10336 20.95156,16.606 92.65668,-25.12545 28.73339,22.7738 -0.90588,0.28139 -0.8584,-0.67781 -86.70919,20.0176 -0.89999,8.10658 69.74106,55.27608 -35.72554,8.24745 -72.92237,-62.44055 -26.05035,6.01436 7.89309,28.21731 48.13945,38.12244 -22.38216,5.1663 -81.68585,-60.41444 -24.783,5.72058 7.50069,32.49197 48.68085,33.81387 -62.72652,14.48053 -12.06456,18.83144 337.70971,-77.96608 3.94104,-15.06971 z m 161.0619,198.844428 48.11604,-13.72399 41.47154,33.89173 c -17.87511,4.12678 -34.90663,8.05985 -52.78177,12.18666 z"
       style="fill:#ffffff;fill-opacity:0.9859813;fill-rule:evenodd;stroke:none;stroke-width:1px;stroke-linecap:butt;stroke-linejoin:miter;stroke-opacity:1"
       inkscape:connector-curvature="0" />
  </g>
</svg>
