<?xml version="1.0" encoding="UTF-8" standalone="no"?>
<svg
   xmlns:dc="http://purl.org/dc/elements/1.1/"
   xmlns:cc="http://creativecommons.org/ns#"
   xmlns:rdf="http://www.w3.org/1999/02/22-rdf-syntax-ns#"
   xmlns:svg="http://www.w3.org/2000/svg"
   xmlns="http://www.w3.org/2000/svg"
   xmlns:sodipodi="http://sodipodi.sourceforge.net/DTD/sodipodi-0.dtd"
   xmlns:inkscape="http://www.inkscape.org/namespaces/inkscape"
   height="1149.2571"
   width="1149.2571"
   version="1.1"
   id="svg1579"
   sodipodi:docname="wastebin.svg"
   inkscape:version="0.92.5 (2060ec1f9f, 2020-04-08)">
  <metadata
     id="metadata1585">
    <rdf:RDF>
      <cc:Work
         rdf:about="">
        <dc:format>image/svg+xml</dc:format>
        <dc:type
           rdf:resource="http://purl.org/dc/dcmitype/StillImage" />
        <dc:title></dc:title>
      </cc:Work>
    </rdf:RDF>
  </metadata>
  <defs
     id="defs1583" />
  <sodipodi:namedview
     pagecolor="#ffffff"
     bordercolor="#666666"
     borderopacity="1"
     objecttolerance="10"
     gridtolerance="10"
     guidetolerance="10"
     inkscape:pageopacity="0"
     inkscape:pageshadow="2"
     inkscape:window-width="1521"
     inkscape:window-height="943"
     id="namedview1581"
     showgrid="false"
     inkscape:zoom="0.35515595"
     inkscape:cx="546.1337"
     inkscape:cy="584.03241"
     inkscape:window-x="64"
     inkscape:window-y="24"
     inkscape:window-maximized="0"
     inkscape:current-layer="svg1579"
     fit-margin-top="0"
     fit-margin-left="0"
     fit-margin-right="0"
     fit-margin-bottom="0" />
  <circle
     style="opacity:1;fill:#b82601;fill-opacity:1;fill-rule:nonzero;stroke:none;stroke-width:32.21686935;stroke-linecap:round;stroke-linejoin:round;stroke-miterlimit:4;stroke-dasharray:none;stroke-dashoffset:0;stroke-opacity:1"
     id="path1503"
     cx="574.62854"
     cy="574.62854"
     r="574.62854" />
  <path
     d="m 866.1337,181.22467 h -256 c 0,0 0,-24.057 0,-32 0,-17.673 -14.327,-32 -32,-32 -17.673,0 -32,14.327 -32,32 0,17.673 0,32 0,32 h -256 c -35.346,0 -64,28.654 -64,64 v 64 c 0,35.346 28.654,64 64,64 v 576 c 0,35.346 28.654,64.00003 64,64.00003 h 448 c 35.346,0 64,-28.65403 64,-64.00003 v -576 c 35.346,0 64,-28.654 64,-64 v -64 c 0,-35.346 -28.654,-64 -64,-64 z m -64,736 c 0,17.673 -14.327,32 -32,32 h -384 c -17.673,0 -32,-14.327 -32,-32 v -544 h 64 v 480 c 0,17.673 14.327,32 32,32 17.673,0 32,-14.327 32,-32 l 0.387,-480 h 63.613 v 480 c 0,17.673 14.327,32 32,32 17.673,0 32,-14.327 32,-32 l 0.387,-480 h 64 l -0.387,480 c 0,17.673 14.327,32 32,32 17.673,0 32,-14.327 32,-32 v -480 h 64 z m 64,-624 c 0,8.837 -7.163,16 -16,16 h -544 c -8.837,0 -16,-7.163 -16,-16 v -32 c 0,-8.837 7.163,-16 16,-16 h 544 c 8.837,0 16,7.163 16,16 z"
     id="path1577"
     style="fill:#ffffff;fill-opacity:1"
     inkscape:connector-curvature="0" />
</svg>
